<svg xmlns="http://www.w3.org/2000/svg" version="1.1" xmlns:xlink="http://www.w3.org/1999/xlink" xmlns:svgjs="http://svgjs.dev/svgjs" width="1500" height="1834" viewBox="0 0 1500 1834"><g transform="matrix(1,0,0,1,-0.16290026067929375,0.7425101214574852)"><svg viewBox="0 0 202 247" data-background-color="#ffffff" preserveAspectRatio="xMidYMid meet" height="1834" width="1500" xmlns="http://www.w3.org/2000/svg" xmlns:xlink="http://www.w3.org/1999/xlink"><g id="tight-bounds" transform="matrix(1,0,0,1,0.021937235104815045,-0.09999999999999432)"><svg viewBox="0 0 201.9561255297904 247.2" height="247.2" width="201.9561255297904"><g><svg viewBox="0 0 488.86271999999997 598.38177261018" height="247.2" width="201.9561255297904"><g transform="matrix(1,0,0,1,46.67135999999999,397.6415357964016)"><svg viewBox="0 0 395.52 200.74023681377827" height="200.74023681377827" width="395.52"><g id="textblocktransform"><svg viewBox="0 0 395.52 200.74023681377827" height="200.74023681377827" width="395.52" id="textblock"><g><svg viewBox="0 0 395.52 200.74023681377827" height="200.74023681377827" width="395.52"><g transform="matrix(1,0,0,1,0,0)"><svg width="395.52" viewBox="1.7 -33.35 92.89 47.150000000000006" height="200.74023681377827" data-palette-color="#543e86"><path d="M9.75 0.65L9.75 0.65Q5.95 0.65 3.83-1.53 1.7-3.7 1.7-7.6L1.7-7.6Q1.7-11.15 3.25-14.05 4.8-16.95 7.43-18.68 10.05-20.4 13.2-20.4L13.2-20.4Q16.2-20.4 18-18.93 19.8-17.45 19.8-15L19.8-15Q19.8-13.05 18.6-11.4 17.4-9.75 15.4-8.78 13.4-7.8 10.95-7.8L10.95-7.8Q7.95-7.8 6.05-9.15L6.05-9.15Q6.1-6.85 7.63-5.45 9.15-4.05 11.55-4.05L11.55-4.05Q13-4.05 14.53-4.58 16.05-5.1 17.15-6L17.15-6Q17.85-6.6 18.45-6.6L18.45-6.6Q18.95-6.6 19.28-6.28 19.6-5.95 19.6-5.45L19.6-5.45Q19.6-4.35 17.7-2.55L17.7-2.55Q14.35 0.65 9.75 0.65ZM10.5-11.1L10.5-11.1Q12.3-11.1 13.5-11.85 14.7-12.6 14.7-13.75L14.7-13.75Q14.7-14.7 13.9-15.23 13.1-15.75 11.7-15.75L11.7-15.75Q9.85-15.75 8.47-14.78 7.1-13.8 6.5-12.05L6.5-12.05Q7.2-11.6 8.3-11.35 9.4-11.1 10.5-11.1ZM26.65 0.55L26.65 0.55Q25.85 0.55 25.37 0.28 24.9 0 25.05-0.65L25.05-0.65Q25.6-2.8 25.97-5.03 26.35-7.25 26.35-9.3L26.35-9.3Q26.35-11.95 26.02-13.18 25.7-14.4 25.15-14.88 24.6-15.35 23.8-15.6L23.8-15.6Q23.45-15.75 23.17-16 22.9-16.25 22.9-16.7L22.9-16.7Q22.9-17.4 23.45-18.25 24-19.1 25-19.73 26-20.35 27.3-20.35L27.3-20.35Q29-20.35 29.67-19.18 30.35-18 30.35-16.1L30.35-16.1Q31.25-18.1 32.57-19.28 33.9-20.45 35.9-20.45L35.9-20.45Q37.25-20.45 38.15-19.85 39.05-19.25 39.05-17.9L39.05-17.9Q39.05-16.55 38.17-15.38 37.3-14.2 36.4-14.2L36.4-14.2Q36.25-14.2 36.05-14.25 35.85-14.3 35.7-14.5L35.7-14.5Q35.05-15.3 34.1-15.3L34.1-15.3Q32.65-15.3 31.55-13.4 30.45-11.5 30.35-8.15L30.35-8.15Q30.4-6.9 30.42-5.6 30.45-4.3 30.45-3.7L30.45-3.7Q30.45-1.85 29.42-0.65 28.4 0.55 26.65 0.55ZM44.59 10.1L44.59 10.1Q43.45 10.1 42.77 9.5 42.09 8.9 42.09 7.05L42.09 7.05Q42.09 5.9 42.17 4.58 42.24 3.25 42.45 1.4L42.45 1.4Q42.65-0.65 42.87-3.53 43.09-6.4 43.34-10.5L43.34-10.5Q43.49-12.95 43.59-15.58 43.7-18.2 43.74-20.6 43.8-23 43.8-24.85L43.8-24.85Q43.8-26.95 43.62-28.3 43.45-29.65 43.2-30.6L43.2-30.6Q43.05-31.15 43.05-31.25L43.05-31.25Q43.05-31.8 44.05-32.58 45.05-33.35 46.34-33.35L46.34-33.35Q47.75-33.35 48.12-31.95 48.5-30.55 48.5-27.35L48.5-27.35Q48.5-26.5 48.37-24.8 48.25-23.1 48.09-21L48.09-21Q47.9-18.85 47.72-16.5 47.55-14.15 47.45-12.05L47.45-12.05Q47.25-7.55 47.09-4.55 46.95-1.55 46.9 0.35 46.84 2.25 46.84 3.5L46.84 3.5Q46.84 4.7 47 5.63 47.15 6.55 47.3 7.15L47.3 7.15Q47.4 7.45 47.45 7.73 47.5 8 47.5 8.25L47.5 8.25Q47.5 8.95 46.7 9.53 45.9 10.1 44.59 10.1ZM59.89 13.8L59.89 13.8Q56.14 13.8 53.94 12.25 51.74 10.7 51.74 8.25L51.74 8.25Q51.74 6.45 52.87 5.05 53.99 3.65 55.84 3.65L55.84 3.65Q56.89 3.65 56.89 4.25L56.89 4.25Q56.89 4.6 56.77 5.05 56.64 5.5 56.64 5.95L56.64 5.95Q56.64 7.35 58.24 8.03 59.84 8.7 62.09 8.7L62.09 8.7Q63.49 8.7 64.94 8.4 66.39 8.1 67.37 7.48 68.34 6.85 68.34 5.8L68.34 5.8Q68.34 4.65 67.19 4.1 66.04 3.55 64.29 3.28 62.54 3 60.72 2.78 58.89 2.55 57.59 2.05L57.59 2.05Q55.94 1.5 55.14 0.7 54.34-0.1 54.34-1.35L54.34-1.35Q54.34-3.7 57.19-5.1L57.19-5.1Q55.54-5.95 54.72-7.5 53.89-9.05 53.89-10.95L53.89-10.95Q53.89-13.4 55.17-15.55 56.44-17.7 58.97-19.07 61.49-20.45 65.29-20.45L65.29-20.45Q66.99-20.45 68.74-20.13 70.49-19.8 71.67-18.93 72.84-18.05 72.84-16.4L72.84-16.4Q72.84-15.8 72.59-15.08 72.34-14.35 71.64-14.35L71.64-14.35Q71.34-14.35 70.84-14.48 70.34-14.6 69.94-14.7L69.94-14.7Q70.04-14.2 70.12-13.6 70.19-13 70.19-12.35L70.19-12.35Q70.19-9.4 68.19-7.03 66.19-4.65 62.34-4.2L62.34-4.2Q60.94-4.1 60.27-3.88 59.59-3.65 59.59-3.1L59.59-3.1Q59.59-2.6 60.19-2.38 60.79-2.15 61.74-2.05L61.74-2.05Q64.79-1.8 67.14-1.2 69.49-0.6 70.82 0.73 72.14 2.05 72.14 4.5L72.14 4.5Q72.14 7.35 70.47 9.43 68.79 11.5 65.99 12.65 63.19 13.8 59.89 13.8ZM61.79-8.55L61.79-8.55Q64.09-8.55 65.39-9.8 66.69-11.05 66.69-13.05L66.69-13.05Q66.69-13.6 66.59-14.18 66.49-14.75 66.39-15.15L66.39-15.15Q65.59-15.4 64.84-15.48 64.09-15.55 63.39-15.55L63.39-15.55Q60.74-15.55 59.24-14.55 57.74-13.55 57.74-11.8L57.74-11.8Q57.74-10.25 58.84-9.4 59.94-8.55 61.79-8.55ZM83.54 0.65L83.54 0.65Q80.09 0.65 78.02-1.23 75.94-3.1 75.94-6.75L75.94-6.75Q75.94-8.45 76.42-10.05 76.89-11.65 77.69-13.05L77.69-13.05Q76.89-12.55 76.49-12.55L76.49-12.55Q75.89-12.55 75.67-13.23 75.44-13.9 75.44-14.55L75.44-14.55Q75.44-15.7 75.92-16.38 76.39-17.05 76.84-17.4L76.84-17.4Q77.89-18.3 80.14-19.38 82.39-20.45 85.54-20.45L85.54-20.45Q89.84-20.45 92.22-18.05 94.59-15.65 94.59-11.35L94.59-11.35Q94.59-8 93.19-5.28 91.79-2.55 89.32-0.95 86.84 0.65 83.54 0.65ZM85.09-4.45L85.09-4.45Q87.59-4.45 89.32-6.03 91.04-7.6 91.04-10.2L91.04-10.2Q91.04-12.9 89.29-14.05 87.54-15.2 85.24-15.2L85.24-15.2Q84.19-15.2 83.34-15 82.49-14.8 81.74-14.5L81.74-14.5Q81.04-13.5 80.49-12.25 79.94-11 79.94-9.5L79.94-9.5Q79.94-7 81.44-5.73 82.94-4.45 85.09-4.45Z" opacity="1" transform="matrix(1,0,0,1,0,0)" fill="#543e86" class="wordmark-text-0" data-fill-palette-color="primary" id="text-0"></path></svg></g></svg></g></svg></g></svg></g><g><svg viewBox="0 0 488.86271999999997 350.25158365035213" height="350.25158365035213" width="488.86271999999997"><g><svg xmlns="http://www.w3.org/2000/svg" xmlns:xlink="http://www.w3.org/1999/xlink" version="1.1" x="0" y="0" viewBox="0.00015959350320373517 16.64416449639353 99.31365756926128 71.15446610807743" enable-background="new 0 0 100 100" xml:space="preserve" height="350.25158365035213" width="488.86271999999997" class="icon-icon-0" data-fill-palette-color="accent" id="icon-0"></svg></g></svg></g><g></g></svg></g><defs></defs><mask id="a3dda52c-e8d3-47c3-b470-564a4ce03a68"><g id="SvgjsG1497"><svg viewBox="0 0 201.9561255297904 247.2" height="247.2" width="201.9561255297904"><g><svg viewBox="0 0 488.86271999999997 598.38177261018" height="247.2" width="201.9561255297904"><g transform="matrix(1,0,0,1,46.67135999999999,397.6415357964016)"><svg viewBox="0 0 395.52 200.74023681377827" height="200.74023681377827" width="395.52"><g id="SvgjsG1496"><svg viewBox="0 0 395.52 200.74023681377827" height="200.74023681377827" width="395.52" id="SvgjsSvg1495"><g><svg viewBox="0 0 395.52 200.74023681377827" height="200.74023681377827" width="395.52"><g transform="matrix(1,0,0,1,0,0)"><svg width="395.52" viewBox="1.7 -33.35 92.89 47.150000000000006" height="200.74023681377827" data-palette-color="#543e86"><path d="M9.75 0.65L9.75 0.65Q5.95 0.65 3.83-1.53 1.7-3.7 1.7-7.6L1.7-7.6Q1.7-11.15 3.25-14.05 4.8-16.95 7.43-18.68 10.05-20.4 13.2-20.4L13.2-20.4Q16.2-20.4 18-18.93 19.8-17.45 19.8-15L19.8-15Q19.8-13.05 18.6-11.4 17.4-9.75 15.4-8.78 13.4-7.8 10.95-7.8L10.95-7.8Q7.95-7.8 6.05-9.15L6.05-9.15Q6.1-6.85 7.63-5.45 9.15-4.05 11.55-4.05L11.55-4.05Q13-4.05 14.53-4.58 16.05-5.1 17.15-6L17.15-6Q17.85-6.6 18.45-6.6L18.45-6.6Q18.95-6.6 19.28-6.28 19.6-5.95 19.6-5.45L19.6-5.45Q19.6-4.35 17.7-2.55L17.7-2.55Q14.35 0.65 9.75 0.65ZM10.5-11.1L10.5-11.1Q12.3-11.1 13.5-11.85 14.7-12.6 14.7-13.75L14.7-13.75Q14.7-14.7 13.9-15.23 13.1-15.75 11.7-15.75L11.7-15.75Q9.85-15.75 8.47-14.78 7.1-13.8 6.5-12.05L6.5-12.05Q7.2-11.6 8.3-11.35 9.4-11.1 10.5-11.1ZM26.65 0.55L26.65 0.55Q25.85 0.55 25.37 0.28 24.9 0 25.05-0.65L25.05-0.65Q25.6-2.8 25.97-5.03 26.35-7.25 26.35-9.3L26.35-9.3Q26.35-11.95 26.02-13.18 25.7-14.4 25.15-14.88 24.6-15.35 23.8-15.6L23.8-15.6Q23.45-15.75 23.17-16 22.9-16.25 22.9-16.7L22.9-16.7Q22.9-17.4 23.45-18.25 24-19.1 25-19.73 26-20.35 27.3-20.35L27.3-20.35Q29-20.35 29.67-19.18 30.35-18 30.35-16.1L30.35-16.1Q31.25-18.1 32.57-19.28 33.9-20.45 35.9-20.45L35.9-20.45Q37.25-20.45 38.15-19.85 39.05-19.25 39.05-17.9L39.05-17.9Q39.05-16.55 38.17-15.38 37.3-14.2 36.4-14.2L36.4-14.2Q36.25-14.2 36.05-14.25 35.85-14.3 35.7-14.5L35.7-14.5Q35.05-15.3 34.1-15.3L34.1-15.3Q32.65-15.3 31.55-13.4 30.45-11.5 30.35-8.15L30.35-8.15Q30.4-6.9 30.42-5.6 30.45-4.3 30.45-3.7L30.45-3.7Q30.45-1.85 29.42-0.65 28.4 0.55 26.65 0.55ZM44.59 10.1L44.59 10.1Q43.45 10.1 42.77 9.5 42.09 8.9 42.09 7.05L42.09 7.05Q42.09 5.9 42.17 4.58 42.24 3.25 42.45 1.4L42.45 1.4Q42.65-0.65 42.87-3.53 43.09-6.4 43.34-10.5L43.34-10.5Q43.49-12.95 43.59-15.58 43.7-18.2 43.74-20.6 43.8-23 43.8-24.85L43.8-24.85Q43.8-26.95 43.62-28.3 43.45-29.65 43.2-30.6L43.2-30.6Q43.05-31.15 43.05-31.25L43.05-31.25Q43.05-31.8 44.05-32.58 45.05-33.35 46.34-33.35L46.34-33.35Q47.75-33.35 48.12-31.95 48.5-30.55 48.5-27.35L48.5-27.35Q48.5-26.5 48.37-24.8 48.25-23.1 48.09-21L48.09-21Q47.9-18.85 47.72-16.5 47.55-14.15 47.45-12.05L47.45-12.05Q47.25-7.55 47.09-4.55 46.95-1.55 46.9 0.35 46.84 2.25 46.84 3.5L46.84 3.5Q46.84 4.7 47 5.63 47.15 6.55 47.3 7.15L47.3 7.15Q47.4 7.45 47.45 7.73 47.5 8 47.5 8.25L47.5 8.25Q47.5 8.95 46.7 9.53 45.9 10.1 44.59 10.1ZM59.89 13.8L59.89 13.8Q56.14 13.8 53.94 12.25 51.74 10.7 51.74 8.25L51.74 8.25Q51.74 6.45 52.87 5.05 53.99 3.65 55.84 3.65L55.84 3.65Q56.89 3.65 56.89 4.25L56.89 4.25Q56.89 4.6 56.77 5.05 56.64 5.5 56.64 5.95L56.64 5.95Q56.64 7.35 58.24 8.03 59.84 8.7 62.09 8.7L62.09 8.7Q63.49 8.7 64.94 8.4 66.39 8.1 67.37 7.48 68.34 6.85 68.34 5.8L68.34 5.8Q68.34 4.65 67.19 4.1 66.04 3.55 64.29 3.28 62.54 3 60.72 2.78 58.89 2.55 57.59 2.05L57.59 2.05Q55.94 1.5 55.14 0.7 54.34-0.1 54.34-1.35L54.34-1.35Q54.34-3.7 57.19-5.1L57.19-5.1Q55.54-5.95 54.72-7.5 53.89-9.05 53.89-10.95L53.89-10.95Q53.89-13.4 55.17-15.55 56.44-17.7 58.97-19.07 61.49-20.45 65.29-20.45L65.29-20.45Q66.99-20.45 68.74-20.13 70.49-19.8 71.67-18.93 72.84-18.05 72.84-16.4L72.84-16.4Q72.84-15.8 72.59-15.08 72.34-14.35 71.64-14.35L71.64-14.35Q71.34-14.35 70.84-14.48 70.34-14.6 69.94-14.7L69.94-14.7Q70.04-14.2 70.12-13.6 70.19-13 70.19-12.35L70.19-12.35Q70.19-9.4 68.19-7.03 66.19-4.65 62.34-4.2L62.34-4.2Q60.94-4.1 60.27-3.88 59.59-3.65 59.59-3.1L59.59-3.1Q59.59-2.6 60.19-2.38 60.79-2.15 61.74-2.05L61.74-2.05Q64.79-1.8 67.14-1.2 69.49-0.6 70.82 0.73 72.14 2.05 72.14 4.5L72.14 4.5Q72.14 7.35 70.47 9.43 68.79 11.5 65.99 12.65 63.19 13.8 59.89 13.8ZM61.79-8.55L61.79-8.55Q64.09-8.55 65.39-9.8 66.69-11.05 66.69-13.05L66.69-13.05Q66.69-13.6 66.59-14.18 66.49-14.75 66.39-15.15L66.39-15.15Q65.59-15.4 64.84-15.48 64.09-15.55 63.39-15.55L63.39-15.55Q60.74-15.55 59.24-14.55 57.74-13.55 57.74-11.8L57.74-11.8Q57.74-10.25 58.84-9.4 59.94-8.55 61.79-8.55ZM83.54 0.65L83.54 0.65Q80.09 0.65 78.02-1.23 75.94-3.1 75.94-6.75L75.94-6.75Q75.94-8.45 76.42-10.05 76.89-11.65 77.69-13.05L77.69-13.05Q76.89-12.55 76.49-12.55L76.49-12.55Q75.89-12.55 75.67-13.23 75.44-13.9 75.44-14.55L75.44-14.55Q75.44-15.7 75.92-16.38 76.39-17.05 76.84-17.4L76.84-17.4Q77.89-18.3 80.14-19.38 82.39-20.45 85.54-20.45L85.54-20.45Q89.84-20.45 92.22-18.05 94.59-15.65 94.59-11.35L94.59-11.35Q94.59-8 93.19-5.28 91.79-2.55 89.32-0.95 86.84 0.65 83.54 0.65ZM85.09-4.45L85.09-4.45Q87.59-4.45 89.32-6.03 91.04-7.6 91.04-10.2L91.04-10.2Q91.04-12.9 89.29-14.05 87.54-15.2 85.24-15.2L85.24-15.2Q84.19-15.2 83.34-15 82.49-14.8 81.74-14.5L81.74-14.5Q81.04-13.5 80.49-12.25 79.94-11 79.94-9.5L79.94-9.5Q79.94-7 81.44-5.73 82.94-4.45 85.09-4.45Z" opacity="1" transform="matrix(1,0,0,1,0,0)" fill="black" class="wordmark-text-0" id="SvgjsPath1494"></path></svg></g></svg></g></svg></g></svg></g><g><svg viewBox="0 0 488.86271999999997 350.25158365035213" height="350.25158365035213" width="488.86271999999997"><g><svg xmlns="http://www.w3.org/2000/svg" xmlns:xlink="http://www.w3.org/1999/xlink" version="1.1" x="0" y="0" viewBox="0.00015959350320373517 16.64416449639353 99.31365756926128 71.15446610807743" enable-background="new 0 0 100 100" xml:space="preserve" height="350.25158365035213" width="488.86271999999997" class="icon-icon-0" data-fill-palette-color="accent" id="SvgjsSvg1493"><g fill="white"><path d="M98.664 53.851C94.055 49.233 79.249 58.503 71.026 55.816 65.916 54.146 64.859 44.038 59.037 37.455 61.11 36.047 63.453 34.327 64.339 33.199 65.525 31.687 66.94 26.981 65.583 25.624 62.361 22.395 52.734 22.885 45.965 25.384 43.423 23.5 40.761 21.776 38.01 20.285 29.078 15.446 4.836 14.388 0.677 23.654-2.99 31.825 9.044 51.29 17.529 57.664 17.971 64.762 22.919 75.37 27.685 75.277 30.526 75.221 32.033 66.773 32.526 63.365 32.918 63.449 33.312 63.53 33.71 63.608 35.352 69.963 39.285 76.757 43.105 76.683 45.795 76.631 47.291 69.046 47.859 65.349 55.39 65.773 63.272 61.559 66.943 64.394 74.222 70.016 73.83 87.921 80.139 87.798 84.751 87.709 86.654 70.535 86.654 70.535S95.179 65.316 97.205 62.735C98.595 60.965 100.255 55.443 98.664 53.851M12.437 22.86A5.214 5.214 0 1 1 21.59 27.855 5.214 5.214 0 0 1 12.437 22.86M29.283 55.971C28.102 54.617 18.366 52.244 18.366 52.244S28.125 52.348 29.748 54.003C31.635 55.926 32.712 61.96 32.712 61.96S30.579 57.456 29.283 55.971M32.201 42.021C29.03 46.007 14.612 52.028 14.612 52.028S27.354 43.818 30.442 39.878C33.306 36.221 37.829 23.03 37.829 23.03S35.32 38.096 32.201 42.021" fill="white"></path></g></svg></g></svg></g><g></g></svg></g><defs><mask></mask></defs></svg><rect width="201.9561255297904" height="247.2" fill="black" stroke="none" visibility="hidden"></rect></g></mask><linearGradient x1="0" x2="1" y1="0.5" y2="0.5" id="f892ebf4-e345-4c0b-942e-e4e51059fbc4"><stop stop-color="#ffa62e" offset="0"></stop><stop stop-color="#f71b3d" offset="1"></stop></linearGradient><rect width="201.9561255297904" height="247.2" fill="url(#f892ebf4-e345-4c0b-942e-e4e51059fbc4)" mask="url(#a3dda52c-e8d3-47c3-b470-564a4ce03a68)" data-fill-palette-color="accent"></rect></svg><rect width="201.9561255297904" height="247.2" fill="none" stroke="none" visibility="hidden"></rect></g></svg></g></svg>